<?xml version="1.0" encoding="utf-8"?>
<svg viewBox="0 0 500 670" width="500" height="670" xmlns="http://www.w3.org/2000/svg">
  <path fill="#01C3FE" opacity="1.000000" stroke="none" d="M 422.207 343.926 C 423.517 338.546 425.04 333.442 427.228 328.535 C 429.154 324.218 431.487 320.122 434.465 316.377 C 441.184 307.914 449.984 302.644 460.963 300.683 C 466.495 299.694 472.04 299.57 477.632 300.084 C 483.208 300.6 488.668 301.639 494.048 303.089 C 494.527 303.22 495.025 303.292 495.487 303.386 C 496.109 302.821 495.706 302.294 495.495 301.808 C 493.574 297.338 491.75 292.828 489.676 288.422 C 478.51 264.69 463.555 243.347 444.898 224.35 C 425.648 204.747 403.514 188.757 378.526 176.344 C 372.453 173.327 366.239 170.582 359.928 168.041 C 358.853 167.607 357.876 167.501 356.762 167.821 C 344.811 171.238 333.29 175.603 322.572 181.756 C 314.623 186.319 307.401 191.734 301.228 198.359 C 292.016 208.243 286.26 219.708 283.881 232.734 C 282.805 238.635 282.388 244.574 282.634 250.537 C 283.017 259.822 284.674 268.935 287.237 277.899 C 289.305 285.132 291.845 292.212 294.837 299.14 C 299.052 308.914 302.561 318.9 305.014 329.212 C 306.623 335.973 307.786 342.795 308.461 349.702 C 309.161 356.859 309.261 364.028 308.761 371.181 C 307.688 386.603 303.781 401.36 296.819 415.354 C 286.933 435.224 272.35 451.379 253.809 464.345 C 235.265 477.315 214.636 485.876 192.136 490.398 C 184.842 491.862 177.484 492.824 170.048 493.342 C 161.927 493.905 153.814 493.835 145.72 493.114 C 128.544 491.583 112.115 487.418 96.683 479.988 C 83.683 473.73 71.963 465.718 61.401 456.171 C 42.474 439.064 29.425 418.427 20.925 395.06 C 20.54 394.003 20.158 392.949 19.738 391.791 C 19.115 392.161 19.331 392.664 19.345 393.063 C 19.575 398.938 20.046 404.793 20.734 410.636 C 21.491 417.042 22.524 423.4 23.823 429.724 C 27.673 448.463 33.889 466.464 42.419 483.737 C 52.125 503.392 64.49 521.405 79.444 537.809 C 80.781 539.279 82.222 540.622 83.794 541.856 C 104.721 558.303 128.42 569.346 154.903 574.997 C 164.663 577.08 174.532 578.357 184.514 578.944 C 191.449 579.351 198.381 579.403 205.309 579.09 C 217.923 578.521 230.398 576.905 242.721 574.268 C 261.874 570.174 280.214 563.899 297.758 555.539 C 319.235 545.308 338.811 532.455 356.304 516.762 C 371.678 502.973 384.862 487.523 395.404 470.073 C 405.097 454.03 412.04 436.985 415.85 418.826 C 417.389 411.475 418.431 404.049 418.694 396.548 C 418.855 391.963 419.049 387.364 418.865 382.785 C 418.664 377.786 418.931 372.81 419.116 367.826 C 419.415 359.849 420.442 351.944 422.207 343.926 Z" style="" transform="matrix(-1, 0, 0, -1, 515.116036, 746.928051)"/>
  <path fill="#FE7235" opacity="1.000000" stroke="none" d="M 318.529 306.675 C 301.669 323.207 287.662 341.504 276.522 361.775 C 266.391 380.216 258.976 399.598 254.298 419.932 C 252.344 428.441 250.852 437.017 249.944 445.675 C 249.38 451.038 249.157 456.434 248.737 461.813 C 248.606 463.492 249.078 464.898 250.049 466.33 C 258.26 478.425 267.638 489.61 278.52 499.622 C 298.131 517.663 320.942 530.394 347.35 537.172 C 357.399 539.753 367.495 542.116 377.761 543.769 C 384.604 544.87 391.484 545.729 398.427 545.978 C 401.892 546.102 405.365 546.257 408.826 546.175 C 417.309 545.975 425.679 544.968 433.852 542.669 C 445.009 539.533 454.804 534.142 463.379 526.689 C 470.111 520.838 475.726 514.094 480.756 506.895 C 484.223 501.93 487.505 496.85 490.296 491.506 C 494.738 483.005 496.564 474.01 495.579 464.556 C 494.92 458.23 492.857 452.287 489.741 446.674 C 485.25 438.576 479.048 431.82 471.731 425.948 C 463.249 419.144 453.779 413.874 443.645 409.663 C 431.964 404.808 419.802 401.468 407.264 399.32 C 400.348 398.136 393.388 397.296 386.379 396.819 C 381.64 396.498 376.969 395.769 372.445 394.342 C 360.835 390.679 352.481 383.441 346.872 373.199 C 343.238 366.564 341.079 359.471 339.734 352.137 C 338.712 346.575 338.256 340.965 337.987 335.323 C 337.572 326.606 338.185 317.946 339.054 309.285 C 339.746 302.386 340.813 295.54 342.121 288.725 C 342.237 288.112 342.232 287.479 342.291 286.755 C 341.916 286.859 341.636 286.863 341.463 286.994 C 333.409 293.035 325.843 299.592 318.529 306.675 Z" style="" transform="matrix(-1, 0, 0, -1, 744.554088, 832.952039)"/>
  <path fill="#0077FE" opacity="1.000000" stroke="none" d="M 3.967 399.91 C 18.343 406.301 33.242 411.262 48.642 414.882 C 58.674 417.239 68.823 418.998 79.085 420.089 C 84.46 420.662 89.871 420.945 95.268 421.318 C 102.534 421.824 109.816 421.753 117.084 421.485 C 124.011 421.228 130.924 420.706 137.813 419.885 C 146.633 418.836 155.368 417.366 164.024 415.441 C 181.636 411.521 198.57 405.785 214.839 398.27 C 236.696 388.179 256.546 375.278 274.385 359.596 C 295.219 341.283 312.25 320.168 325.464 296.274 C 335.529 278.075 342.901 258.924 347.632 238.86 C 349.576 230.605 351.013 222.269 352.01 213.857 C 353.094 204.722 353.596 195.562 353.557 186.375 C 353.499 173.385 352.398 160.475 349.988 147.684 C 349.195 143.485 348.251 139.315 347.373 135.13 C 347.308 134.82 347.199 134.517 347.091 134.138 C 346.471 133.891 345.868 133.617 345.241 133.401 C 339.1 131.286 332.839 129.585 326.341 128.855 C 321.106 128.27 315.87 128.224 310.726 129.606 C 304.363 131.313 299.626 134.935 296.512 140.488 C 294.782 143.575 293.76 146.89 293.054 150.298 C 292.056 155.121 291.351 159.985 290.881 164.881 C 290.019 173.86 289.208 182.844 288.28 191.819 C 286.957 204.646 285.193 217.409 282.401 230.036 C 278.53 247.531 272.736 264.396 264.391 280.43 C 255.382 297.734 243.792 313.329 229.842 327.349 C 212.768 344.506 193.118 358.502 171.754 370.411 C 157.636 378.278 142.99 385.085 127.583 390.379 C 113.939 395.066 99.971 398.548 85.656 400.746 C 79.06 401.76 72.418 402.439 65.746 402.912 C 56.702 403.556 47.653 403.578 38.608 403.213 C 30.919 402.901 23.254 402.201 15.645 401.058 C 11.886 400.491 8.134 399.888 4.171 399.434 C 3.961 399.681 3.965 399.796 3.967 399.91 Z" style="" transform="matrix(-1, 0, 0, -1, 357.525976, 550.162057)"/>
  <path fill="#FEA835" opacity="1.000000" stroke="none" d="M 219.618 448.346 C 219.426 452.833 219.056 457.099 219.126 461.358 C 219.269 470.387 220.049 479.366 222.494 488.144 C 223.494 491.732 224.738 495.234 226.527 498.544 C 227.654 500.628 228.992 502.574 230.72 504.27 C 232.422 505.934 234.427 507.109 236.822 507.517 C 240.232 508.1 243.653 508.66 247.092 509.034 C 252.638 509.633 258.208 510.019 263.755 510.586 C 286.594 512.921 306.567 521.392 323.72 535.946 C 333.117 543.916 341.346 552.862 348.779 562.496 C 356.405 572.378 363.139 582.798 369.314 593.55 C 369.958 594.675 370.617 595.792 371.245 596.869 C 371.879 596.823 371.758 596.432 371.761 596.158 C 371.875 588.826 371.55 581.512 370.962 574.202 C 370.462 567.937 369.744 561.698 368.772 555.485 C 366.428 540.47 362.753 525.779 356.854 511.638 C 353.25 503.005 350.743 494.075 349 484.949 C 347.532 477.255 346.624 469.503 346.301 461.685 C 345.677 446.62 347.077 431.778 351.477 417.249 C 354.714 406.561 359.536 396.591 366.406 387.556 C 370.092 382.708 374.291 378.301 379.011 374.35 C 379.584 373.873 380.136 373.377 380.692 372.884 C 380.747 372.834 380.763 372.745 380.794 372.678 C 380.763 372.24 380.41 372.235 380.084 372.194 C 373.201 371.358 366.294 370.813 359.355 370.632 C 356.483 370.556 353.609 370.413 350.738 370.455 C 345.242 370.534 339.74 370.575 334.257 370.9 C 318.859 371.812 303.676 374.087 288.724 377.738 C 271.873 381.855 255.681 387.638 240.102 395.001 C 238.436 395.787 236.823 396.68 235.136 397.422 C 233.904 397.96 233.152 398.791 232.593 399.95 C 230.579 404.125 228.76 408.372 227.226 412.724 C 223.878 422.216 221.568 431.935 220.364 441.882 C 220.112 443.962 219.883 446.044 219.618 448.346 Z" style="" transform="matrix(-1, 0, 0, -1, 599.911935, 967.315993)"/>
</svg>